<svg width="253" height="143" viewBox="0 0 253 143" fill="none" xmlns="http://www.w3.org/2000/svg">
<path d="M-1.28375 118.948L-11.1443 95.2827H-1.28375H8.57678L18.4373 118.948L8.57678 142.613H-1.28375H-11.1443L-1.28375 118.948Z" fill="white" fill-opacity="0.06"/>
<path d="M34.6087 118.948L24.7482 95.2826H34.6087H44.4692L54.3298 118.948L44.4692 142.613H34.6087H24.7482L34.6087 118.948Z" fill="white" fill-opacity="0.06"/>
<path d="M70.5009 118.948L60.6404 95.2826H70.5009H80.3614L90.222 118.948L80.3614 142.613H70.5009H60.6404L70.5009 118.948Z" fill="white" fill-opacity="0.06"/>
<path d="M106.393 118.948L96.5328 95.2826H106.393H116.254L126.114 118.948L116.254 142.613H106.393H96.5328L106.393 118.948Z" fill="white" fill-opacity="0.06"/>
<path d="M142.286 118.948L132.425 95.2826H142.286H152.146L162.007 118.948L152.146 142.613H142.286H132.425L142.286 118.948Z" fill="white" fill-opacity="0.06"/>
<path d="M178.178 118.948L168.318 95.2826H178.178H188.039L197.899 118.948L188.039 142.613H178.178H168.318L178.178 118.948Z" fill="white" fill-opacity="0.06"/>
<path d="M214.07 118.948L204.21 95.2826H214.07H223.931L233.791 118.948L223.931 142.613H214.07H204.21L214.07 118.948Z" fill="white" fill-opacity="0.06"/>
<path d="M249.963 118.948L240.102 95.2826H249.963H259.823L269.684 118.948L259.823 142.613H249.963H240.102L249.963 118.948Z" fill="white" fill-opacity="0.06"/>
<path d="M16.4653 71.6174L6.60474 47.9521H16.4653L26.3258 47.9521L36.1863 71.6174L26.3258 95.2826H16.4653H6.60474L16.4653 71.6174Z" fill="white" fill-opacity="0.06"/>
<path d="M52.3576 71.6174L42.4971 47.9521H52.3576L62.2181 47.9521L72.0787 71.6174L62.2181 95.2826H52.3576H42.4971L52.3576 71.6174Z" fill="white" fill-opacity="0.06"/>
<path d="M88.2499 71.6174L78.3894 47.9521H88.2499L98.1105 47.9521L107.971 71.6174L98.1105 95.2826H88.2499H78.3894L88.2499 71.6174Z" fill="white" fill-opacity="0.06"/>
<path d="M124.142 71.6174L114.282 47.9521H124.142L134.003 47.9521L143.863 71.6174L134.003 95.2826H124.142H114.282L124.142 71.6174Z" fill="white" fill-opacity="0.06"/>
<path d="M160.035 71.6173L150.174 47.952H160.035L169.895 47.952L179.756 71.6173L169.895 95.2826H160.035H150.174L160.035 71.6173Z" fill="white" fill-opacity="0.06"/>
<path d="M195.927 71.6174L186.066 47.9521H195.927L205.787 47.9521L215.648 71.6174L205.787 95.2826H195.927H186.066L195.927 71.6174Z" fill="white" fill-opacity="0.06"/>
<path d="M231.819 71.6174L221.959 47.9521H231.819L241.68 47.9521L251.54 71.6174L241.68 95.2826H231.819H221.959L231.819 71.6174Z" fill="white" fill-opacity="0.06"/>
<path d="M-1.67816 24.2868L-11.5387 0.621521L-1.67816 0.621521L8.18237 0.621521L18.0429 24.2868L8.18237 47.9521L-1.67816 47.9521H-11.5387L-1.67816 24.2868Z" fill="white" fill-opacity="0.06"/>
<path d="M34.2142 24.2867L24.3536 0.62146L34.2142 0.62146L44.0747 0.62146L53.9352 24.2867L44.0747 47.952L34.2142 47.952H24.3536L34.2142 24.2867Z" fill="white" fill-opacity="0.06"/>
<path d="M70.1065 24.2868L60.246 0.621521L70.1065 0.621521L79.967 0.621521L89.8276 24.2868L79.967 47.9521L70.1065 47.9521H60.246L70.1065 24.2868Z" fill="white" fill-opacity="0.06"/>
<path d="M105.999 24.2867L96.1384 0.62146L105.999 0.62146L115.859 0.62146L125.72 24.2867L115.859 47.952L105.999 47.952H96.1384L105.999 24.2867Z" fill="white" fill-opacity="0.06"/>
<path d="M141.891 24.2869L132.031 0.621582L141.891 0.621582L151.752 0.621582L161.612 24.2869L151.752 47.9521L141.891 47.9521H132.031L141.891 24.2869Z" fill="white" fill-opacity="0.06"/>
<path d="M177.784 24.2868L167.923 0.621521L177.784 0.621521L187.644 0.621521L197.505 24.2868L187.644 47.9521L177.784 47.9521H167.923L177.784 24.2868Z" fill="white" fill-opacity="0.06"/>
<path d="M213.676 24.2868L203.815 0.621521L213.676 0.621521L223.536 0.621521L233.397 24.2868L223.536 47.9521L213.676 47.9521H203.815L213.676 24.2868Z" fill="white" fill-opacity="0.06"/>
<path d="M249.568 24.2868L239.708 0.621521L249.568 0.621521L259.429 0.621521L269.289 24.2868L259.429 47.9521L249.568 47.9521H239.708L249.568 24.2868Z" fill="white" fill-opacity="0.06"/>
</svg>
